<svg enable-background="new 0 0 157 40.1" viewBox="0 0 157 40.1" xmlns="http://www.w3.org/2000/svg"><path d="m130.9 33.7c-.1-.1-.3-.2-.4-.3-.2-.1-.4-.1-.6-.1-.3 0-.5.1-.7.2s-.4.3-.6.4c-.2.2-.3.4-.5.6-.1.2-.2.5-.3.8s-.1.5-.2.8c0 .3-.1.5-.1.8 0 .2 0 .4.1.6 0 .2.1.3.2.5.1.1.3.2.4.3.2.1.4.1.6.1.3 0 .5-.1.7-.2s.4-.3.6-.4c.2-.2.3-.4.5-.6.1-.2.2-.5.3-.8s.1-.5.2-.8c0-.3.1-.5.1-.8 0-.2 0-.4-.1-.6 0-.2-.1-.3-.2-.5z" fill="none"/><path d="m68.1 33.2c-.3 0-.5 0-.7.1s-.4.2-.6.4-.3.4-.4.6-.2.5-.3.7h.7c.4 0 .7 0 1.1-.1.2 0 .5-.1.7-.2s.3-.2.4-.4c.1-.1.1-.3.1-.4 0-.2-.1-.4-.3-.6-.1 0-.4-.1-.7-.1z" fill="none"/><path d="m60.2 31c-.1-.1-.3-.2-.4-.2-.2 0-.4-.1-.6-.1h-1.2l-.6 2.8h1.2c.3 0 .6 0 .9-.2.2-.1.4-.3.6-.4.1-.2.3-.4.3-.6.1-.2.1-.4.1-.6 0-.1 0-.3-.1-.4 0-.1-.1-.2-.2-.3z" fill="none"/><path d="m81.7 33.8c-.1-.1-.3-.2-.4-.3-.2-.1-.4-.1-.6-.1-.3 0-.5.1-.7.2s-.4.3-.6.4c-.2.2-.3.4-.5.6-.1.2-.2.5-.3.8s-.1.5-.2.8c0 .3-.1.5-.1.8 0 .2 0 .4.1.6 0 .2.1.3.2.5.1.1.3.2.4.3.2.1.4.1.6.1.3 0 .5-.1.7-.2s.4-.3.6-.4c.2-.2.3-.4.5-.6.1-.2.2-.5.3-.8s.1-.5.2-.8c0-.3.1-.5.1-.8 0-.2 0-.4-.1-.6 0-.3-.1-.4-.2-.5z" fill="none"/><path d="m105.3 33.7c-.1-.1-.3-.2-.4-.3-.2-.1-.4-.1-.6-.1-.3 0-.5.1-.7.2s-.4.3-.6.4c-.2.2-.3.4-.5.6-.1.2-.2.5-.3.8s-.1.5-.2.8c0 .3-.1.5-.1.8 0 .2 0 .4.1.6 0 .2.1.3.2.5.1.1.3.2.4.3.2.1.4.1.6.1.3 0 .5-.1.7-.2s.4-.3.6-.4c.2-.2.3-.4.5-.6.1-.2.2-.5.3-.8s.1-.5.2-.8c0-.3.1-.5.1-.8 0-.2 0-.4-.1-.6 0-.2-.1-.3-.2-.5z" fill="none"/><path d="m154.1 33.4c-.2-.2-.5-.2-.8-.2s-.5 0-.7.1-.4.2-.6.4-.3.4-.4.6-.2.5-.3.7h.7c.4 0 .7 0 1.1-.1.3 0 .5-.1.7-.2s.3-.2.4-.4c.1-.1.1-.3.1-.4.1-.1 0-.3-.2-.5z" fill="none"/><path d="m59.8 35.5c-.4-.2-.8-.3-1.3-.3h-1.5l-.6 3.1h1.6c.3 0 .7 0 1-.2.2-.1.5-.2.7-.4s.3-.4.4-.6.1-.5.1-.7c0-.4-.1-.7-.4-.9z" fill="none"/><path d="m89.3 7.3c-.2-.6-.5-1.2-1-1.7s-1.1-.9-1.8-1.1c-.9-.3-1.9-.4-2.9-.4h-2.5l-3.1 16h2.5c1.1 0 2.2-.1 3.2-.5.8-.3 1.6-.7 2.3-1.3.7-.5 1.2-1.2 1.7-1.9s.8-1.4 1.1-2.2.5-1.6.6-2.4.2-1.6.2-2.4c0-.7-.1-1.4-.3-2.1z" fill="none"/><path d="m28.5 34.9c.7-.1 1.3-.2 2-.3-.7.1-1.4.2-2 .3z" fill="#fff"/><path d="m34.1 33.9c.8-.2 1.7-.4 2.5-.5-.8.2-1.6.4-2.5.5z" fill="#fff"/><path d="m31.3 34.5c.9-.2 1.8-.3 2.7-.5-.8.1-1.7.3-2.7.5z" fill="#fff"/><path d="m25.4 35.2c.7-.1 1.3-.1 1.9-.2-.6.1-1.2.2-1.9.2z" fill="#fff"/><path d="m47.3 0h-40.8l1.1 3.1c4 11.4 3 21.9-3.9 31.7-.3.4-.6.8-.9 1.2l-2.8 3.8h41.7l.7-.8c9.3-11 10.6-23.9 5.4-37.5zm1.2 20.1s.1-.1.1-.1c-.3 3.5-1.2 6.9-2.7 10.1v.1c-.6 1.3-1.3 2.5-2.2 3.7-.1.1-.2.2-.2.3-.1.1-.1.2-.2.2s.1-.1.1-.2c-.8 1.2-1.7 2.3-2.7 3.4h-36.1c.3-.4.6-.8 1-1.2 7-10.2 8.6-21.5 4.2-34.2h36.1c2.2 6.3 3.1 12.3 2.6 17.9z" fill="#fff"/><path d="m39.8 32.5c.5-.1 1-.3 1.4-.5-.4.2-.9.4-1.4.5z" fill="#fff"/><path d="m37.4 33.2c.5-.1 1.1-.3 1.6-.4-.5.1-1.1.3-1.6.4z" fill="#fff"/><path d="m42 31.7c.5-.2.9-.4 1.4-.5-.4.2-.9.4-1.4.5z" fill="#fff"/><path d="m24.9 35.3c.1 0 .2-.1.3-.1-5.9.7-12.6 1-19.6 1.2 6.9-.2 13.4-.5 19.3-1.1z" fill="#fff"/><path d="m44.2 33c.2-.3.4-.6.6-.9-.2.3-.4.6-.6.9z" fill="#fff"/><path d="m44.1 30.9c.6-.3 1.2-.6 1.8-.9-.6.3-1.2.6-1.8.9z" fill="#fff"/><path d="m9.7 2.2c4.4 12.7 2.9 24-4.2 34.2h.1c7-.1 13.6-.5 19.6-1.2 11.9-4 19.2-9.7 23.3-15.1.6-5.6-.3-11.5-2.7-17.9h-36.1z" fill="#05428e"/><path d="m44.2 33c-.2.3-.3.5-.5.8.8-1.2 1.5-2.4 2.2-3.7-.3.7-.7 1.4-1.1 2-.2.3-.4.6-.6.9z" fill="#fecc0d"/><path d="m43.3 34.4c.1-.1.1-.2.2-.2 0 0 0 .1-.1.1 0 0-.1 0-.1.1z" fill="#fecc0d"/><path d="m25.2 35.2c-.1 0-.2.1-.3.1.2 0 .4 0 .6-.1.7-.1 1.3-.1 1.9-.2.4 0 .7-.1 1.1-.1.7-.1 1.3-.2 2-.3.3 0 .6-.1.9-.1.9-.2 1.8-.3 2.7-.5h.1c.8-.2 1.7-.4 2.5-.5.3-.1.5-.1.8-.2.5-.1 1.1-.3 1.6-.4.3-.1.6-.2.9-.3.5-.1 1-.3 1.4-.5.3-.1.5-.2.8-.3.5-.2.9-.4 1.4-.5.2-.1.4-.2.7-.3l1.8-.9c1.5-3.2 2.4-6.6 2.7-10.1 0 0-.1.1-.1.1-4.3 5.5-11.6 11.1-23.5 15.1z" fill="#fecc0d"/><path d="m44.1 30.9c-.2.1-.4.2-.7.3-.4.2-.9.4-1.4.5-.3.1-.5.2-.8.3-.5.2-.9.3-1.4.5-.3.1-.6.2-.9.3-.5.2-1.1.3-1.6.4-.3.1-.5.1-.8.2-.8.2-1.6.4-2.5.5 0 0 0 0-.1 0-.9.2-1.8.3-2.7.5-.3 0-.6.1-.9.1-.6.1-1.3.2-2 .3-.4 0-.7.1-1.1.1-.6.1-1.3.2-1.9.2-.2 0-.4 0-.6.1-5.9.6-12.4.9-19.3 1.1 0 0 0 0-.1 0-.3.4-.6.8-1 1.2h36.1c1-1.1 1.9-2.2 2.7-3.4 0 0 0-.1.1-.1.1-.1.2-.2.2-.3.2-.3.3-.5.5-.8s.4-.6.6-.9c.4-.7.7-1.3 1.1-2 0 0 0 0 0-.1-.3.4-.9.7-1.5 1z" fill="#00a04e"/><g fill="#fff"><path d="m108.9 22.4c.1-.3.1-.5.2-.7s.1-.5.1-.6c0-.2 0-.3 0-.4 0-.2 0-.4-.1-.5s-.2-.2-.4-.2h-7.4l3.8-18.8c0-.1 0-.2 0-.3-.1-.1-.2-.2-.3-.2-.2-.1-.5-.1-.7-.1-.3 0-.7 0-1.1 0-.5 0-.9 0-1.2 0s-.5.1-.8.1c-.2 0-.3.1-.4.2s-.1.2-.2.3l-4.3 21.2c0 .2-.1.5 0 .7 0 .2.1.3.2.5.1.1.2.2.4.3s.4.1.5.1h10.7c.2 0 .3-.1.4-.2.1-.2.2-.3.3-.5.2-.4.2-.7.3-.9z"/><path d="m91.8 18.5c.5-.7 1-1.5 1.3-2.4.3-.8.6-1.6.8-2.5.2-.8.4-1.6.5-2.5.1-.8.1-1.5.1-2.3 0-1.2-.2-2.5-.6-3.7-.4-1-1-1.9-1.9-2.6-.9-.8-2-1.3-3.1-1.6-1.5-.4-3.1-.6-4.7-.5h-5.6c-.4 0-.8.1-1.2.4s-.6.7-.6 1.1l-4.1 20.4c-.1.2-.1.5 0 .7 0 .2.1.3.2.5.1.1.3.2.4.2.2 0 .4.1.6.1h5.9c1.4 0 2.9-.1 4.3-.4 1.1-.2 2.2-.6 3.2-1.1.9-.4 1.8-1 2.5-1.7.8-.6 1.5-1.3 2-2.1zm-3.1-4.3c-.3.8-.7 1.5-1.1 2.2-.5.7-1 1.3-1.7 1.9-.7.5-1.5 1-2.3 1.3-1 .3-2.1.5-3.2.5h-2.4l3.2-15.9h2.5c1 0 2 .1 2.9.4.7.2 1.3.6 1.8 1.1s.8 1 1 1.7.3 1.4.3 2.1c0 .8-.1 1.6-.2 2.4-.3.8-.5 1.6-.8 2.3z"/><path d="m72.5 5.4c.2-.4.4-.9.4-1.4.1-.4.2-.9.2-1.4 0-.3-.1-.6-.3-.9-.4-.2-.8-.5-1.2-.7-.6-.3-1.3-.5-2-.7-.8-.2-1.6-.3-2.4-.3-1.4 0-2.8.2-4.1.7-1.2.4-2.3 1.1-3.3 1.9s-1.8 1.7-2.5 2.7-1.3 2.1-1.8 3.3c-.5 1.1-.8 2.3-1 3.5s-.3 2.3-.3 3.5c0 1.3.2 2.6.6 3.8.4 1 .9 1.9 1.7 2.7.8.7 1.7 1.3 2.7 1.6 1.1.4 2.3.5 3.5.5.8 0 1.5-.1 2.2-.2.6-.1 1.3-.3 1.9-.5.5-.2 1-.3 1.4-.6.3-.1.5-.3.8-.5.1-.1.2-.3.3-.5s.2-.4.2-.6c.1-.2.1-.4.2-.7 0-.2.1-.5.1-.7s.1-.4.1-.6c0-.1 0-.3 0-.4 0-.2 0-.3-.1-.5-.1-.1-.2-.2-.3-.2-.3 0-.5.1-.8.3s-.6.4-1.1.6-1 .4-1.6.6c-.7.2-1.5.3-2.2.3s-1.3-.1-2-.3c-.6-.2-1.1-.5-1.5-.9-.4-.5-.7-1-.9-1.6-.2-.7-.3-1.5-.3-2.2 0-.8.1-1.5.2-2.3s.4-1.7.6-2.4c.3-.8.6-1.6 1.1-2.4.4-.7.9-1.4 1.5-2s1.2-1.1 2-1.4c.8-.4 1.6-.5 2.4-.5.7 0 1.4.1 2 .3.5.2.9.4 1.3.6.3.2.6.4.8.6.1.2.3.3.6.3.5.1.7 0 .9-.4z"/><path d="m83.4 32.5c-.3-.3-.6-.5-1-.6-.5-.1-1-.2-1.4-.2-.5 0-1 .1-1.5.2-.4.1-.8.4-1.2.6-.3.3-.7.6-.9.9-.2.4-.5.7-.6 1.1-.2.4-.3.8-.4 1.2s-.1.8-.1 1.2.1.9.2 1.3.3.7.6.9c.3.3.6.5 1 .6.5.1 1 .2 1.5.2s1-.1 1.5-.2c.4-.1.8-.4 1.2-.6.3-.3.6-.6.9-.9s.5-.7.6-1.1c.2-.4.3-.8.4-1.2s.1-.8.1-1.2-.1-.9-.2-1.3c-.2-.3-.4-.6-.7-.9zm-1.4 3.1c0 .3-.1.5-.2.8s-.2.5-.3.8c-.1.2-.3.4-.5.6s-.4.3-.6.4-.5.2-.7.2-.4 0-.6-.1-.3-.2-.4-.3-.2-.3-.2-.5-.1-.4-.1-.6c0-.3 0-.5.1-.8 0-.3.1-.5.2-.8s.2-.5.3-.8c.1-.2.3-.4.5-.6s.4-.3.6-.4.5-.2.7-.2.4 0 .6.1.3.2.4.3.2.3.2.5.1.4.1.6c-.1.3-.1.6-.1.8z"/><path d="m99.2 29.2c-.1 0-.2-.1-.3-.1s-.3 0-.5 0-.4 0-.5 0-.2 0-.3.1c-.1 0-.1.1-.2.1 0 0-.1.1-.1.1l-.8 4h-4l.8-4c0-.1 0-.1 0-.1 0-.1-.1-.1-.2-.1s-.2-.1-.3-.1-.3 0-.5 0-.4 0-.5 0-.2 0-.3.1c-.1 0-.1.1-.2.1 0 0-.1.1-.1.1l-2 10.2v.1c0 .1.1.1.2.1s.2.1.3.1h.5s.4 0 .5 0 .2 0 .3-.1c.1 0 .1-.1.2-.1 0 0 .1-.1.1-.1l.9-4.3h4l-.9 4.3v.1c0 .1.1.1.2.1s.2.1.3.1h.5.5c.1 0 .2 0 .3-.1.1 0 .1-.1.2-.1 0 0 .1-.1.1-.1l2-10.2c0-.1 0-.1 0-.1-.1-.1-.1-.1-.2-.1z"/><path d="m116.7 30.7c.2 0 .4.1.6.1s.4 0 .6-.1c.1 0 .3-.1.4-.2s.2-.2.3-.3c.1-.2.1-.3.2-.5 0-.2.1-.3 0-.5 0-.1 0-.2-.1-.3s-.2-.2-.3-.2c-.2 0-.4-.1-.6-.1s-.4 0-.6.1c-.1 0-.3.1-.4.2s-.2.2-.3.3c-.1.2-.1.3-.2.5 0 .2-.1.3-.1.5 0 .1.1.2.1.3.2.2.3.2.4.2z"/><path d="m106.9 32.5c-.3-.3-.6-.5-1-.6-.5-.1-1-.2-1.4-.2-.5 0-1 .1-1.5.2-.4.1-.8.4-1.2.6-.3.3-.7.6-.9.9-.2.4-.5.7-.6 1.1-.2.4-.3.8-.4 1.2s-.1.8-.1 1.2.1.9.2 1.3.3.7.6.9c.3.3.6.5 1 .6.5.1 1 .2 1.4.2.5 0 1-.1 1.5-.2.4-.1.8-.4 1.2-.6.3-.3.6-.6.9-.9.3-.4.5-.7.6-1.1.2-.4.3-.8.4-1.2s.1-.8.1-1.2-.1-.9-.2-1.3c-.1-.3-.3-.6-.6-.9zm-1.3 2.3c0 .3 0 .5-.1.8 0 .3-.1.5-.2.8s-.2.5-.3.8c-.1.2-.3.4-.5.6s-.4.3-.6.4-.5.2-.7.2-.4 0-.6-.1-.3-.2-.4-.3-.2-.3-.2-.5-.1-.4-.1-.6c0-.3 0-.5.1-.8 0-.3.1-.5.2-.8s.2-.5.3-.8c.1-.2.3-.4.5-.6s.4-.3.6-.4.5-.2.7-.2.4 0 .6.1.3.2.4.3.2.3.2.5.1.4.1.6z"/><path d="m62 29.7c-.3-.2-.7-.3-1-.4-.5-.1-1-.1-1.5-.1h-2.6c-.2 0-.4.1-.5.2-.2.1-.3.3-.3.5l-1.9 9.4c-.1.2 0 .4.1.5s.3.2.5.2h3c.5 0 1.1 0 1.6-.2.4-.1.8-.2 1.2-.4.3-.2.6-.4.9-.6.2-.2.4-.5.6-.8s.3-.5.3-.8c.1-.3.1-.5.1-.8s0-.5-.1-.8c-.1-.2-.2-.4-.3-.6s-.3-.3-.5-.4-.4-.2-.7-.2c.3-.1.6-.3.8-.4.2-.2.5-.4.6-.6.2-.2.3-.5.4-.8s.1-.6.1-.9-.1-.7-.2-1c-.1-.6-.4-.9-.6-1zm-1.9 7.3c-.1.2-.2.4-.4.6s-.4.4-.7.4c-.3.1-.7.2-1 .2h-1.5l.6-3.1h1.5c.4 0 .9.1 1.3.3.3.2.4.5.4.8-.1.3-.1.6-.2.8zm.4-4.6c-.1.2-.2.4-.3.6-.2.2-.4.3-.6.4-.3.1-.6.2-.9.2h-1.2l.6-2.8h1.2c.2 0 .4 0 .6.1.2 0 .3.1.4.2s.2.2.2.3c.1.1.1.3.1.4 0 .2-.1.4-.1.6z"/><path d="m71 33c-.1-.3-.3-.5-.5-.7-.3-.2-.6-.4-.9-.5-.4-.1-.9-.2-1.3-.2-.5 0-1.1.1-1.6.3-.4.2-.8.4-1.2.7-.3.3-.6.6-.9 1-.2.4-.4.8-.6 1.2s-.3.8-.3 1.3c-.1.4-.1.8-.1 1.2s.1.8.2 1.2c.1.3.3.6.6.9.3.2.6.4 1 .5.5.1.9.2 1.4.2.3 0 .6 0 .9-.1.3 0 .6-.1.8-.1s.4-.1.6-.2c.1 0 .3-.1.4-.2s.1-.2.2-.2c0-.1.1-.2.1-.3s.1-.2.1-.4c0-.1 0-.2 0-.3s0-.1 0-.2c0 0-.1-.1-.1-.1-.1 0-.2 0-.3.1-.1 0-.3.1-.5.2-.3.1-.5.1-.8.2s-.7.1-1 .1c-.4 0-.8-.1-1.1-.3-.3-.3-.4-.6-.3-1 0-.1 0-.2 0-.3s0-.3 0-.4h.8c.7 0 1.4-.1 2.1-.2.5-.1 1-.3 1.4-.5.3-.2.6-.5.8-.8s.3-.7.3-1.1c0-.4-.1-.7-.2-1zm-1.8 1c0 .2 0 .3-.1.4-.1.2-.2.3-.4.4s-.5.2-.7.2c-.4.1-.7.1-1.1.1h-.7c.1-.3.2-.5.3-.7s.3-.4.4-.6c.2-.2.4-.3.6-.4s.5-.2.7-.1c.3 0 .5.1.8.2.1.1.2.3.2.5z"/><path d="m75.9 28.4c-.1 0-.2-.1-.3-.1-.2 0-.3 0-.5 0s-.3 0-.5 0c-.1 0-.2 0-.3.1-.1 0-.1.1-.2.1 0 0-.1.1-.1.1l-2.2 10.9v.1s.1.1.1.1c.1 0 .2.1.3.1h.5.5c.1 0 .2 0 .3-.1.1 0 .1-.1.2-.1 0 0 .1-.1.1-.1l2.2-10.9c0-.1 0-.1 0-.1.1 0 0-.1-.1-.1z"/><path d="m148.6 31.9h-1.6l.3-1.7c0-.1 0-.1 0-.1 0-.1-.1-.1-.1-.1-.1 0-.2-.1-.3-.1-.2 0-.3 0-.5 0s-.4 0-.5 0-.2 0-.3.1c-.1 0-.1.1-.2.1 0 0-.1.1-.1.1l-.3 1.7h-1c-.1 0-.2.1-.3.2s-.1.2-.2.4c0 .1-.1.3-.1.4v.4.3s.1.1.2.1h.9l-.7 3.6v.2.3.3.2c0 .3 0 .6.1.8s.2.4.4.6.4.3.6.3c.3.1.6.1.9.1h.5c.1 0 .3 0 .4-.1.1 0 .2-.1.4-.1.1 0 .2-.1.2-.1.1-.1.1-.1.1-.2s.1-.2.1-.3.1-.3.1-.4 0-.2 0-.4c0-.1 0-.1 0-.2 0 0-.1-.1-.1-.1h-.1l-.2.1c-.1 0-.2 0-.2.1-.1 0-.2 0-.3 0-.2 0-.4 0-.5-.2-.1-.1-.2-.3-.2-.5 0-.1 0-.2 0-.3s0-.2 0-.3l.7-3.5h1.6c.1 0 .1 0 .2-.1s.1-.1.1-.2.1-.2.1-.3.1-.2.1-.3 0-.2 0-.3 0-.1 0-.2c0-.1 0-.2-.1-.3z"/><path d="m114.6 32.6c0-.1 0-.2 0-.3s0-.2 0-.2c0-.1 0-.1 0-.2 0 0-.1-.1-.1-.1-.1 0-.1 0-.2-.1-.1 0-.2 0-.2 0-.1 0-.2 0-.3 0-.2 0-.4 0-.6.1s-.4.2-.6.3c-.2.2-.4.3-.6.5s-.3.4-.5.7l.2-1.2v-.1s-.1-.1-.1-.1c-.1 0-.2-.1-.3-.1s-.3 0-.4 0-.3 0-.4 0-.2 0-.3.1c-.1 0-.1.1-.2.1 0 0-.1.1-.1.1l-1.5 7.4v.1s.1.1.1.1c.1 0 .2.1.3.1h.5.5c.1 0 .2 0 .3-.1.1 0 .1-.1.2-.1 0 0 .1-.1.1-.1l.7-3.3c.1-.3.2-.7.3-1s.3-.6.5-.8.4-.4.6-.6c.2-.1.4-.2.6-.2h.2c.1 0 .1 0 .2.1s.1 0 .2.1h.1c.1 0 .1-.1.2-.1.1-.1.1-.2.1-.3s.1-.3.1-.4c.3-.1.4-.2.4-.4z"/><path d="m141.7 32.4c-.2-.2-.4-.4-.6-.5-.3-.1-.6-.2-1-.2-.3 0-.6.1-.9.2s-.6.2-.8.4-.5.3-.7.5-.3.4-.5.6l.2-1.2v-.1s-.1-.1-.1-.1c-.1 0-.2 0-.3-.1-.1 0-.3 0-.4 0s-.3 0-.4 0-.2 0-.3.1c-.1 0-.1.1-.2.1 0 0-.1.1-.1.1l-1.5 7.4v.1s.1.1.1.1c.1 0 .2.1.3.1h.5.5c.1 0 .2 0 .3-.1.1 0 .1-.1.2-.1 0 0 .1-.1.1-.1l.7-3.4c.1-.4.2-.7.4-1s.4-.6.6-.9c.2-.2.4-.4.7-.6.2-.1.5-.2.7-.2s.4.1.5.2c.1.2.2.4.2.6v.4c0 .1 0 .3-.1.4l-.9 4.4v.1s.1.1.1.1c.1 0 .2.1.3.1h.5.5c.1 0 .2 0 .3-.1.1 0 .1-.1.2-.1 0 0 .1-.1.1-.1l1.1-4.5c0-.2.1-.4.1-.6s0-.4 0-.6c0-.3 0-.6-.1-.8 0-.2-.2-.5-.3-.6z"/><path d="m156.3 33c-.1-.3-.3-.5-.5-.7-.3-.2-.6-.4-.9-.5-.4-.1-.9-.2-1.3-.2-.5 0-1.1.1-1.6.3-.4.2-.8.4-1.2.7-.3.3-.6.6-.9 1-.2.4-.4.8-.6 1.2s-.3.8-.3 1.3c-.1.4-.1.8-.1 1.2s.1.8.2 1.2c.1.3.3.6.6.9.3.2.6.4 1 .5.5.1.9.2 1.4.2.3 0 .6 0 .9-.1.3 0 .6-.1.8-.1s.4-.1.6-.2c.1 0 .3-.1.4-.2s.1-.2.2-.2c0-.1.1-.2.1-.3s.1-.2.1-.4c0-.1 0-.2 0-.3s0-.1 0-.2c0 0-.1-.1-.1-.1-.1 0-.2 0-.3.1-.1 0-.3.1-.5.2-.3.1-.5.1-.8.2s-.7.1-1 .1c-.4 0-.8-.1-1.1-.3-.3-.3-.4-.6-.3-1 0-.1 0-.2 0-.3s0-.3.1-.4h.8c.7 0 1.4-.1 2.1-.2.5-.1 1-.3 1.4-.5.3-.2.6-.5.8-.8s.3-.7.3-1.1c-.2-.4-.2-.7-.3-1zm-2 1.4c-.1.2-.2.3-.4.4s-.5.2-.7.2c-.4.1-.7.1-1.1.1h-.7c.1-.3.2-.5.3-.7s.3-.4.4-.6c.2-.2.4-.3.6-.4s.5-.2.7-.1c.3 0 .5.1.8.2.2.1.3.3.3.6-.1 0-.2.2-.2.3z"/><path d="m117.9 32c-.1 0-.2-.1-.3-.1-.2 0-.3 0-.5 0s-.3 0-.5 0c-.1 0-.2 0-.3.1-.1 0-.1.1-.2.1 0 0-.1.1-.1.1l-1.5 7.4v.1s.1.1.1.1c.1 0 .2.1.3.1h.5.5c.1 0 .2 0 .3-.1.1 0 .1-.1.2-.1 0 0 .1-.1.1-.1l1.5-7.4v-.1c0-.1 0-.1-.1-.1z"/><path d="m124.8 31.9h-4.6c-.1 0-.1 0-.2.1s-.1.1-.1.2-.1.2-.1.3-.1.2-.1.3v.3.2c0 .1 0 .2.1.3 0 .1.1.1.2.1h2.5l-3.5 4.3c-.1.1-.1.2-.2.2-.1.1-.1.1-.1.2s-.1.1-.1.2 0 .1-.1.2c0 .1 0 .1-.1.2v.2.2.2c0 .1 0 .2.1.3s.1.1.2.1h4.9c.1 0 .1 0 .2-.1s.1-.1.1-.2.1-.2.1-.3.1-.2.1-.3 0-.2 0-.3 0-.2 0-.2c0-.1 0-.2-.1-.3 0-.1-.1-.1-.2-.1h-2.8l3.5-4.3c.1-.1.2-.3.3-.4s.1-.3.2-.4v-.2c0-.1 0-.2.1-.3 0-.1 0-.2 0-.3s0-.1 0-.2 0-.2-.1-.2c0 0-.1 0-.2 0z"/><path d="m132.6 32.5c-.3-.3-.6-.5-1-.6-.5-.1-1-.2-1.4-.2-.5 0-1 .1-1.5.2-.4.1-.8.4-1.2.6-.3.3-.7.6-.9.9-.2.4-.5.7-.6 1.1-.2.4-.3.8-.4 1.2s-.1.8-.1 1.2.1.9.2 1.3.3.7.6.9c.3.3.6.5 1 .6.5.1 1 .2 1.5.2s1-.1 1.5-.2c.4-.1.8-.4 1.2-.6.3-.3.6-.6.9-.9s.5-.7.6-1.1c.2-.4.3-.8.4-1.2s.1-.8.1-1.2-.1-.9-.2-1.3c-.2-.3-.5-.6-.7-.9zm-1.4 2.3c0 .3 0 .5-.1.8 0 .3-.1.5-.2.8s-.2.5-.3.8c-.1.2-.3.4-.5.6s-.4.3-.6.4-.5.2-.7.2-.4 0-.6-.1-.3-.2-.4-.3-.2-.3-.2-.5-.1-.4-.1-.6c0-.3 0-.5.1-.8 0-.3.1-.5.2-.8s.2-.5.3-.8c.1-.2.3-.4.5-.6s.4-.3.6-.4.5-.2.7-.2.4 0 .6.1.3.2.4.3.2.3.2.5c.1.2.1.4.1.6z"/></g></svg>